<svg xmlns="http://www.w3.org/2000/svg" width="1024" height="1024" viewBox="0 0 1024 1024" role="img" aria-label="OpenProgram">
  <defs>
    <linearGradient id="op-background" x1="176" y1="132" x2="856" y2="900" gradientUnits="userSpaceOnUse">
      <stop offset="0" stop-color="#29374D"/>
      <stop offset="0.52" stop-color="#19243A"/>
      <stop offset="1" stop-color="#101622"/>
    </linearGradient>
    <radialGradient id="op-background-light" cx="0.3" cy="0.18" r="0.92">
      <stop offset="0" stop-color="#536784" stop-opacity="0.28"/>
      <stop offset="0.58" stop-color="#25324A" stop-opacity="0.08"/>
      <stop offset="1" stop-color="#101622" stop-opacity="0"/>
    </radialGradient>
    <linearGradient id="op-ring" x1="326" y1="318" x2="710" y2="718" gradientUnits="userSpaceOnUse">
      <stop offset="0" stop-color="#5CB8FF"/>
      <stop offset="0.3" stop-color="#568FF4"/>
      <stop offset="0.66" stop-color="#746FEF"/>
      <stop offset="1" stop-color="#AD60F3"/>
    </linearGradient>
    <linearGradient id="op-node-blue" x1="338" y1="334" x2="526" y2="530" gradientUnits="userSpaceOnUse">
      <stop offset="0" stop-color="#83D3FF"/>
      <stop offset="0.52" stop-color="#4AA3F1"/>
      <stop offset="1" stop-color="#3575D4"/>
    </linearGradient>
    <linearGradient id="op-node-purple" x1="546" y1="500" x2="684" y2="652" gradientUnits="userSpaceOnUse">
      <stop offset="0" stop-color="#C8A2FA"/>
      <stop offset="0.52" stop-color="#9A69E7"/>
      <stop offset="1" stop-color="#7445C4"/>
    </linearGradient>
    <linearGradient id="op-node-indigo" x1="418" y1="608" x2="492" y2="694" gradientUnits="userSpaceOnUse">
      <stop offset="0" stop-color="#9BAAF3"/>
      <stop offset="0.52" stop-color="#7283DE"/>
      <stop offset="1" stop-color="#5059B8"/>
    </linearGradient>
    <linearGradient id="op-rim-light" x1="512" y1="100" x2="512" y2="924" gradientUnits="userSpaceOnUse">
      <stop offset="0" stop-color="#FFFFFF" stop-opacity="0.22"/>
      <stop offset="0.28" stop-color="#FFFFFF" stop-opacity="0.06"/>
      <stop offset="0.55" stop-color="#FFFFFF" stop-opacity="0"/>
      <stop offset="0.88" stop-color="#000000" stop-opacity="0"/>
      <stop offset="1" stop-color="#000000" stop-opacity="0.18"/>
    </linearGradient>
    <linearGradient id="op-top-sheen" x1="400" y1="100" x2="560" y2="560" gradientUnits="userSpaceOnUse">
      <stop offset="0" stop-color="#FFFFFF" stop-opacity="0.07"/>
      <stop offset="1" stop-color="#FFFFFF" stop-opacity="0"/>
    </linearGradient>
    <clipPath id="op-mark-interior">
      <circle cx="512" cy="512" r="228"/>
    </clipPath>
    <clipPath id="op-squircle-clip">
      <path d="M512 100C736 100 808 100 866 158C924 216 924 288 924 512C924 736 924 808 866 866C808 924 736 924 512 924C288 924 216 924 158 866C100 808 100 736 100 512C100 288 100 216 158 158C216 100 288 100 512 100Z"/>
    </clipPath>
  </defs>

  <path
    id="op-squircle"
    d="M512 100C736 100 808 100 866 158C924 216 924 288 924 512C924 736 924 808 866 866C808 924 736 924 512 924C288 924 216 924 158 866C100 808 100 736 100 512C100 288 100 216 158 158C216 100 288 100 512 100Z"
    fill="url(#op-background)"
  />
  <path
    d="M512 100C736 100 808 100 866 158C924 216 924 288 924 512C924 736 924 808 866 866C808 924 736 924 512 924C288 924 216 924 158 866C100 808 100 736 100 512C100 288 100 216 158 158C216 100 288 100 512 100Z"
    fill="url(#op-background-light)"
  />

  <circle cx="512" cy="512" r="252" fill="none" stroke="url(#op-ring)" stroke-width="44"/>
  <g clip-path="url(#op-mark-interior)">
    <circle id="op-node-a" cx="432" cy="432" r="112" fill="url(#op-node-blue)" stroke="#D9EEFF" stroke-opacity="0.16" stroke-width="6"/>
    <circle id="op-node-b" cx="612" cy="572" r="84" fill="url(#op-node-purple)" stroke="#EFE3FF" stroke-opacity="0.16" stroke-width="6"/>
    <circle id="op-node-c" cx="456" cy="650" r="44" fill="url(#op-node-indigo)" stroke="#E0E5FF" stroke-opacity="0.16" stroke-width="6"/>
  </g>

  <g clip-path="url(#op-squircle-clip)">
    <path
      d="M512 100C736 100 808 100 866 158C924 216 924 288 924 512C924 736 924 808 866 866C808 924 736 924 512 924C288 924 216 924 158 866C100 808 100 736 100 512C100 288 100 216 158 158C216 100 288 100 512 100Z"
      fill="url(#op-top-sheen)"
    />
    <path
      d="M512 100C736 100 808 100 866 158C924 216 924 288 924 512C924 736 924 808 866 866C808 924 736 924 512 924C288 924 216 924 158 866C100 808 100 736 100 512C100 288 100 216 158 158C216 100 288 100 512 100Z"
      fill="none"
      stroke="url(#op-rim-light)"
      stroke-width="10"
    />
  </g>
</svg>
